<?xml version="1.0" encoding="UTF-8"?>
<svg version="1.1" xmlns="http://www.w3.org/2000/svg" width="800" height="177">
<path d="M0 0 C0.09301653 12.29226079 0.16392505 24.58443672 0.20724869 36.87697887 C0.22805048 42.5860005 0.25623195 48.29477986 0.30175781 54.00366211 C0.34548076 59.52150642 0.36919271 65.0391189 0.37950897 70.55712318 C0.3868531 72.65368609 0.40119342 74.75023748 0.42292023 76.84670067 C0.60335295 94.99218571 -1.2945828 109.82911334 -14.125 123.75 C-23.34646417 132.47718134 -34.19090216 135.93495392 -46.703125 136.02734375 C-60.87961867 135.46774532 -72.42800264 131.15948131 -82.25 120.75 C-92.60414747 108.41971305 -95.18141789 93.69369987 -94 78 C-93.35024527 74.1626804 -92.37388839 70.63781753 -91 67 C-90.61714844 65.96166016 -90.61714844 65.96166016 -90.2265625 64.90234375 C-85.69271394 54.4412161 -76.40526833 46.12211576 -66.03515625 41.75 C-54.06929564 37.57282684 -41.93662465 37.71177559 -30 42 C-27.36 43.32 -24.72 44.64 -22 46 C-22 52.93 -22 59.86 -22 67 C-25.43503813 66.14124047 -27.6876724 65.20581911 -30.75 63.5625 C-38.99002277 59.41241554 -45.81588067 58.02560541 -55 60 C-63.1082749 62.94536213 -67.55576332 66.64138674 -71.25 74.4375 C-74.28890457 82.52918639 -74.30536633 91.38872147 -71.3125 99.5 C-68.02152533 106.45773538 -63.95120833 110.86051093 -56.94140625 114.078125 C-49.48421713 116.41530512 -41.65855574 116.16960149 -34.5 113 C-27.36265132 108.81603698 -23.83124347 102.94032459 -21.60449219 95.12820435 C-20.46776133 89.24570249 -20.57725373 83.29821596 -20.58930969 77.32809258 C-20.59384196 74.88400167 -20.57963859 72.44061437 -20.56091309 69.99659729 C-20.51819649 63.93184837 -20.50691071 57.86711899 -20.49468994 51.80224609 C-20.4831121 46.66073062 -20.45942025 41.51954008 -20.41999817 36.37816048 C-20.40653722 33.98466457 -20.41057733 31.59162302 -20.41540527 29.19810486 C-20.38363367 20.3780274 -20.0435301 12.82766843 -15.1875 5.125 C-10.40045129 0.47472411 -6.50083398 -0.1461726 0 0 Z " fill="#02AB0D" transform="translate(645,0)"/>
<path d="M0 0 C9.99432301 7.57499607 18.01958637 18.43739307 20.125 31.1171875 C21.39885331 46.86664667 20.66566672 60.41608721 10.46875 73.3359375 C1.91933592 83.12462445 -8.55858432 88.80037645 -21.66015625 89.7734375 C-31.78081239 89.86693086 -42.08383772 88.49098319 -50.66015625 82.7734375 C-51.00073242 80.52685547 -51.00073242 80.52685547 -50.953125 77.765625 C-50.94345703 76.77949219 -50.93378906 75.79335937 -50.92382812 74.77734375 C-50.89869141 73.74480469 -50.87355469 72.71226563 -50.84765625 71.6484375 C-50.82735352 70.08802734 -50.82735352 70.08802734 -50.80664062 68.49609375 C-50.77120853 65.92136123 -50.72180846 63.3476542 -50.66015625 60.7734375 C-49.68433594 61.26714844 -48.70851563 61.76085937 -47.703125 62.26953125 C-46.4180222 62.91677281 -45.132863 63.56390238 -43.84765625 64.2109375 C-42.88375977 64.69916992 -42.88375977 64.69916992 -41.90039062 65.19726562 C-33.92289511 69.20668047 -25.98351076 70.10467003 -17.13671875 68.2421875 C-9.75933806 65.64173147 -6.27593749 61.6456408 -2.67578125 54.9921875 C0.63189006 47.76619788 0.43191317 38.37912158 -1.37890625 30.7421875 C-4.17472626 23.2566049 -8.72011798 18.71973377 -15.66015625 14.7734375 C-23.89817954 11.79766174 -31.71875073 12.04870748 -39.66015625 15.7734375 C-46.87860054 20.32573734 -49.96596934 26.70254426 -52.22301865 34.73018074 C-53.01631809 38.43819952 -52.96911874 42.14294081 -52.97900391 45.92163086 C-52.98904953 46.81022797 -52.99909515 47.69882507 -53.00944519 48.61434937 C-53.04016037 51.53065384 -53.05727978 54.44686701 -53.07421875 57.36328125 C-53.09293978 59.39352701 -53.11251389 61.42376507 -53.13290405 63.45399475 C-53.18413237 68.78202768 -53.22380784 74.11008581 -53.26104736 79.43823242 C-53.30114537 84.88141059 -53.35221125 90.32448477 -53.40234375 95.76757812 C-53.4989929 106.43612477 -53.58343286 117.10473025 -53.66015625 127.7734375 C-55.09190896 127.65190742 -56.52274908 127.51959747 -57.953125 127.3828125 C-58.75000732 127.31030273 -59.54688965 127.23779297 -60.36791992 127.16308594 C-65.0490268 126.36736258 -67.8882546 123.62878798 -70.97265625 120.2109375 C-73.90769808 115.97143264 -73.81366311 112.15254742 -73.82128906 107.18774414 C-73.82625397 106.41654236 -73.83121887 105.64534058 -73.83633423 104.85076904 C-73.85095537 102.29503486 -73.85776093 99.73936293 -73.86328125 97.18359375 C-73.86903668 95.40058898 -73.87479436 93.61758422 -73.8805542 91.83457947 C-73.89106675 88.08950513 -73.89690646 84.34445225 -73.90039062 80.59936523 C-73.9058487 75.82839812 -73.92981763 71.05772025 -73.95836258 66.2868433 C-73.97710914 62.59851798 -73.98220111 58.91026031 -73.9837265 55.2218914 C-73.98673106 53.46503572 -73.99468423 51.7081806 -74.00791168 49.95137215 C-74.12837419 32.70852799 -71.82203512 17.69499659 -59.5703125 4.5546875 C-43.95180359 -10.00981161 -17.78772381 -11.82004337 0 0 Z " fill="#02AC0D" transform="translate(420.66015625,46.2265625)"/>
<path d="M0 0 C10.97636563 7.54625137 18.64878912 17.3640699 21.1875 30.75 C22.56508621 43.61724138 22.56508621 43.61724138 21.1875 47.75 C-3.5625 47.75 -28.3125 47.75 -53.8125 47.75 C-49.84229479 57.67551302 -47.39922463 62.47973279 -38.02734375 67.1328125 C-31.10070432 69.8577353 -25.45451055 70.97347434 -18.375 68.1875 C-14.20678247 66.19586023 -10.98740589 63.58759485 -7.63671875 60.43359375 C-5.7843716 58.72403996 -3.85072812 57.23030254 -1.8125 55.75 C0.48382123 57.34783187 2.77449523 58.95283715 5.0625 60.5625 C5.71347656 61.01431641 6.36445312 61.46613281 7.03515625 61.93164062 C7.66035156 62.37314453 8.28554688 62.81464844 8.9296875 63.26953125 C9.5057373 63.67276611 10.08178711 64.07600098 10.67529297 64.49145508 C12.1875 65.75 12.1875 65.75 14.1875 68.75 C6.29304669 79.62954346 -1.40523417 86.79292385 -14.8125 89.75 C-24.47315591 90.51323113 -34.87143874 90.84798641 -43.8125 86.75 C-44.699375 86.3478125 -45.58625 85.945625 -46.5 85.53125 C-59.74959211 78.90645395 -68.31693391 69.43523075 -73.1875 55.5 C-76.94661051 42.11505002 -75.31158617 28.71946557 -68.6875 16.5625 C-61.34307599 4.74957381 -51.76732458 -2.73966201 -38.4375 -6.51953125 C-24.84815351 -9.25790172 -11.92628511 -7.15904752 0 0 Z M-49.8125 25.5625 C-50.95108659 27.65228563 -50.95108659 27.65228563 -50.8125 29.75 C-34.3125 29.75 -17.8125 29.75 -0.8125 29.75 C-4.45463771 21.25167867 -8.31785031 17.04260983 -16.75 13.3125 C-29.99773077 8.63325565 -41.86903235 14.39199862 -49.8125 25.5625 Z " fill="#02AC0D" transform="translate(522.8125,46.25)"/>
<path d="M0 0 C1.34197814 1.02501569 2.65668722 2.08700869 3.9375 3.1875 C4.57042969 3.71214844 5.20335937 4.23679687 5.85546875 4.77734375 C12.93902322 11.196343 17.55186243 20.60185179 18.11219788 30.17086792 C18.16872567 33.85379102 18.16210028 37.53159822 18.1328125 41.21484375 C18.12907681 42.57247203 18.12623247 43.93010303 18.12423706 45.28773499 C18.11664431 48.84037882 18.09703397 52.39285603 18.0748291 55.94543457 C18.05427613 59.5788345 18.04521524 63.21226167 18.03515625 66.84570312 C18.01378339 73.95970309 17.97970087 81.0735906 17.9375 88.1875 C10.7240839 87.445379 6.63927812 86.25438328 1.625 80.5625 C-1.46941696 76.20739465 -1.24538164 72.53729374 -1.30859375 67.33984375 C-1.34156073 65.51887592 -1.37477185 63.69791249 -1.40820312 61.87695312 C-1.45539939 59.00923001 -1.49977225 56.14152095 -1.53930664 53.27368164 C-1.57937235 50.50386956 -1.63086022 47.73443975 -1.68359375 44.96484375 C-1.6920079 44.12074448 -1.70042206 43.2766452 -1.70909119 42.40696716 C-1.88959651 33.58110321 -2.78601544 26.40275665 -9.09375 19.9140625 C-15.85404546 13.98539069 -23.19574895 12.94209052 -32.0625 13.1875 C-39.59681402 14.19419456 -45.119513 17.43400012 -50.0625 23.1875 C-55.15167428 31.09415917 -55.84117516 38.90739883 -55.0625 48.1875 C-52.7746235 56.98337755 -48.67882616 62.49314479 -40.96484375 67.171875 C-35.12111389 70.29173078 -28.48508272 69.90188353 -22.0625 69.1875 C-15.05209719 66.57376793 -10.57867232 61.97746451 -6.0625 56.1875 C-5.7325 56.1875 -5.4025 56.1875 -5.0625 56.1875 C-4.80016375 60.22792673 -4.64099509 64.26616481 -4.5 68.3125 C-4.38688477 70.02566406 -4.38688477 70.02566406 -4.27148438 71.7734375 C-4.05500758 80.04766178 -4.05500758 80.04766178 -6.89501953 83.26074219 C-16.49539618 89.8865528 -27.8809501 91.11749263 -39.25 89.5625 C-52.02489772 86.99409087 -61.81498735 79.46501897 -69 68.6875 C-76.28635795 56.42927427 -77.79226151 42.33682357 -75.4140625 28.3828125 C-72.15698434 15.66072088 -65.08673885 6.16103462 -54.1328125 -1.08984375 C-38.38111348 -9.75001022 -15.37268368 -9.73516301 0 0 Z " fill="#02AC0D" transform="translate(782.0625,45.8125)"/>
<path d="M0 0 C0 24.42 0 48.84 0 74 C10.31273928 73.1638532 10.31273928 73.1638532 17 68 C19.1907623 64.62948108 21.14067586 61.15438772 23.0625 57.625 C24.58438819 54.87382134 26.10990921 52.12687712 27.67138672 49.39794922 C29.13507102 46.83480806 29.13507102 46.83480806 30.63671875 43.359375 C33.50066561 40.50016193 34.47664385 40.59050571 38.421875 40.4140625 C40.53204597 40.45387705 42.64180774 40.52534 44.75 40.625 C46.36841797 40.66560547 46.36841797 40.66560547 48.01953125 40.70703125 C50.68171065 40.77770858 53.33984236 40.87631599 56 41 C52.91229626 47.31516327 49.69480364 53.50619219 46.125 59.5625 C45.69517822 60.29339844 45.26535645 61.02429687 44.82250977 61.77734375 C41.3915982 67.52343367 37.75775914 73.24224086 33 78 C33.76183594 78.41958984 33.76183594 78.41958984 34.5390625 78.84765625 C40.66406004 82.41483646 45.32730682 86.33600542 48.3125 92.875 C50.29431766 101.88326207 50.12130177 110.88490006 50.0625 120.0625 C50.05747314 121.41861813 50.05291234 122.77473808 50.04882812 124.13085938 C50.03712079 127.42061994 50.02072211 130.71028594 50 134 C48.56824729 133.87846992 47.13740717 133.74615997 45.70703125 133.609375 C44.91014893 133.53686523 44.1132666 133.46435547 43.29223633 133.38964844 C37.63066885 132.42726036 34.1858056 128.4837264 31 124 C29.70555558 121.41111116 29.81309025 119.03444263 29.71044922 116.18408203 C29.50965972 106.17628481 29.50965972 106.17628481 26 97 C17.35288666 92.81757506 17.35288666 92.81757506 0 93 C0 106.53 0 120.06 0 134 C-10.35598706 132.70550162 -10.35598706 132.70550162 -15.6875 127.25 C-20.22378907 120.87467482 -20.29537474 114.64539671 -20.2746582 107.07666016 C-20.27976913 106.10498398 -20.28488007 105.1333078 -20.29014587 104.13218689 C-20.30399485 100.93441532 -20.30308856 97.73686042 -20.30078125 94.5390625 C-20.30467086 92.30618205 -20.30900607 90.07330234 -20.31376648 87.84042358 C-20.32121868 83.16507568 -20.32094471 78.4898033 -20.31567383 73.81445312 C-20.30988173 67.83711213 -20.32680902 61.86008126 -20.3500185 55.88279152 C-20.36478437 51.27241218 -20.36562362 46.66210702 -20.36250877 42.05170822 C-20.36302059 39.84859986 -20.36823191 37.6454872 -20.37832069 35.44240189 C-20.39072244 32.35544205 -20.38387069 29.26907991 -20.37231445 26.18212891 C-20.37995819 25.28105911 -20.38760193 24.37998932 -20.39547729 23.45161438 C-20.34106165 16.84130469 -19.51588428 10.15629118 -15.28125 4.84375 C-14.6934375 4.4003125 -14.105625 3.956875 -13.5 3.5 C-12.9121875 3.0359375 -12.324375 2.571875 -11.71875 2.09375 C-7.61821807 -0.51567941 -5.20352366 0 0 0 Z " fill="#02AB0D" transform="translate(183,0)"/>
<path d="M0 0 C9.20231839 7.43725546 14.88895501 17.39521594 17 29 C17.9005219 38.71024653 18.11828888 48.98294007 14 58 C13.6596875 58.75152344 13.319375 59.50304687 12.96875 60.27734375 C7.20236648 71.67374361 -1.7437149 79.87125189 -13.6875 84.3125 C-26.57257756 88.22550322 -39.83060666 88.0828847 -52.125 82.4375 C-64.23117787 75.90903759 -72.88234996 66.13674594 -77.24609375 53.08203125 C-81.19739232 36.92879515 -78.26388133 23.01190873 -70 9 C-63.79426588 -0.4515517 -53.70503788 -6.054531 -43 -9 C-27.19632503 -12.14396717 -13.16403039 -9.20908948 0 0 Z M-52 19 C-57.97664388 26.5494449 -58.92445085 34.63847241 -58 44 C-56.10885462 52.51581633 -52.23366599 59.3197528 -45.0390625 64.37890625 C-37.84694856 68.21559157 -29.14812632 68.28134514 -21.34765625 66.33984375 C-14.15752973 63.50066559 -8.90492373 58.51614378 -5.5625 51.5625 C-2.70006632 43.458467 -2.36591353 32.88748001 -5.6875 24.875 C-9.63726007 17.6612021 -14.47198571 13.23549929 -22 10 C-33.84750978 7.15014515 -43.79335502 10.1284648 -52 19 Z " fill="#02AC0D" transform="translate(320,49)"/>
<path d="M0 0 C9.49618382 8.73591533 15.24736501 19.97730631 16.3359375 32.87890625 C16.44035156 33.96171875 16.44035156 33.96171875 16.546875 35.06640625 C17.14086541 47.49451322 13.18961523 59.7916949 5.296875 69.34765625 C-4.89733982 80.1542444 -16.41471811 85.11924188 -31.1015625 85.87890625 C-45.56434509 85.87890625 -57.05571805 80.49155937 -67.7109375 70.9140625 C-76.96905192 61.26710727 -80.28893558 48.62697415 -80.13671875 35.6015625 C-79.60365256 21.88090219 -74.15055582 9.24868304 -64.12890625 -0.234375 C-44.94453428 -14.91908445 -19.0360951 -15.15630445 0 0 Z M-53.6640625 17.87890625 C-58.72751544 24.28357143 -59.97524428 32.25538205 -59.6640625 40.25390625 C-58.65453462 48.43456323 -55.22643668 56.32706213 -48.6640625 61.50390625 C-41.36298995 66.52339363 -33.23403943 66.78498311 -24.6640625 65.87890625 C-17.00144265 63.58421795 -11.47536787 59.05879174 -7.671875 52.05078125 C-3.86935435 43.72145031 -3.40141504 34.94666767 -6.2265625 26.25390625 C-9.36399176 18.47087997 -14.0785253 12.9294906 -21.82421875 9.5546875 C-33.671961 5.20296901 -45.4061024 8.68427938 -53.6640625 17.87890625 Z " fill="#02AB0D" transform="translate(135.6640625,50.12109375)"/>
<path d="M0 0 C0 7.59 0 15.18 0 23 C10.56 23 21.12 23 32 23 C32 29.27 32 35.54 32 42 C21.44 42 10.88 42 0 42 C0.09698025 48.60231321 0.19974137 55.20400543 0.31738281 61.8059082 C0.35564079 64.05129513 0.39049921 66.29674269 0.421875 68.54223633 C0.46759417 71.77186737 0.52557807 75.00108222 0.5859375 78.23046875 C0.60326431 79.73386055 0.60326431 79.73386055 0.62094116 81.2676239 C0.64081085 82.20822159 0.66068054 83.14881927 0.68115234 84.11791992 C0.69447601 84.94176682 0.70779968 85.76561371 0.7215271 86.61442566 C1.04472661 89.38315636 1.76182608 91.50559581 3 94 C8.39560813 96.88355451 14.89113037 96.44813686 20.875 96.625 C21.94492187 96.66367188 23.01484375 96.70234375 24.1171875 96.7421875 C26.74452155 96.83602086 29.37223652 96.91908022 32 97 C32 103.27 32 109.54 32 116 C27.54129279 116.08145135 23.08409618 116.14072626 18.625 116.1875 C17.37332031 116.21263672 16.12164062 116.23777344 14.83203125 116.26367188 C4.23765007 116.34687382 -4.42000357 115.47876933 -12.30859375 107.97265625 C-17.62514585 101.77205853 -19.14850493 95.14574351 -19.17700195 87.15136719 C-19.18357315 86.3526268 -19.19014435 85.55388641 -19.19691467 84.73094177 C-19.21663283 82.08625188 -19.22830745 79.44161875 -19.23828125 76.796875 C-19.24235678 75.8926606 -19.2464323 74.9884462 -19.25063133 74.05683136 C-19.27148655 69.27014902 -19.28579019 64.48349529 -19.29516602 59.69677734 C-19.30622447 54.75933185 -19.34061937 49.82233777 -19.38033772 44.88505173 C-19.40651736 41.08283668 -19.41485909 37.28072894 -19.41844749 33.4784317 C-19.42331059 31.65881555 -19.43491671 29.83920411 -19.45348549 28.01967621 C-19.47790419 25.46816018 -19.47690712 22.9178087 -19.4699707 20.36621094 C-19.48278076 19.61997971 -19.49559082 18.87374847 -19.50878906 18.10490417 C-19.45507832 12.66204667 -18.10517878 9.4890106 -15 5 C-9.6991454 0.88913317 -6.82240981 0 0 0 Z " fill="#02AC0D" transform="translate(19,18)"/>
<path d="M0 0 C6.6 0 13.2 0 20 0 C20 30.69 20 61.38 20 93 C9.44827586 91.82758621 9.44827586 91.82758621 5 88 C0.74970551 82.37123162 -0.14754787 78.29588001 -0.11352539 71.4074707 C-0.11367142 70.63650055 -0.11381744 69.8655304 -0.1139679 69.07119751 C-0.11327119 66.52269681 -0.1054901 63.97426918 -0.09765625 61.42578125 C-0.09579121 59.65886983 -0.09436771 57.8919579 -0.09336853 56.12504578 C-0.08955012 51.47421847 -0.07972558 46.82342239 -0.06866455 42.17260742 C-0.05843591 37.42692487 -0.05386779 32.68123727 -0.04882812 27.93554688 C-0.03810273 18.62368199 -0.02051137 9.31184848 0 0 Z " fill="#02AB0D" transform="translate(667,41)"/>
<path d="M0 0 C3.58552881 1.63687185 4.79315055 2.68972583 7 6 C7.68869056 11.17318721 7.84213522 15.59644131 5.125 20.125 C1.35476314 23.45167958 -1.63574503 23.33762848 -6.51953125 23.28125 C-10.06688108 22.87903081 -11.68718177 21.67419608 -14 19 C-16.25475922 15.310394 -16.26216554 12.09448866 -15.6171875 7.93359375 C-14.60001197 4.74687294 -12.54706149 3.05007388 -10 1 C-6.80876226 -0.59561887 -3.47254909 -0.3799142 0 0 Z " fill="#02AB0D" transform="translate(681,11)"/>
</svg>
